<?xml version="1.0" encoding="utf-8"?>
<!-- Generator: Adobe Illustrator 16.0.0, SVG Export Plug-In . SVG Version: 6.00 Build 0)  -->
<!DOCTYPE svg PUBLIC "-//W3C//DTD SVG 1.1//EN" "http://www.w3.org/Graphics/SVG/1.1/DTD/svg11.dtd">
<svg version="1.1" id="Layer_3" xmlns="http://www.w3.org/2000/svg" xmlns:xlink="http://www.w3.org/1999/xlink" x="0px" y="0px"
	 width="217px" height="38px" viewBox="0 0 217 38" enable-background="new 0 0 217 38" xml:space="preserve">
<g>
	<g>
		<circle fill="#3A3836" cx="18.0398" cy="4.9756" r="2.4041"/>
		<g>
			<path fill="#3A3836" d="M10.5928,25.8125l0.7202-1.2466c-0.3115-0.2158-0.6411-0.4048-0.9839-0.5698l-0.7148,1.2378
				C9.9604,25.396,10.2866,25.5889,10.5928,25.8125z"/>
			<path fill="#3A3836" d="M12.2056,25.293l-0.7495,1.2949c0.9448,1.0356,1.521,2.4121,1.521,3.9233
				c0,3.2178-2.6055,5.8232-5.8208,5.8232c-3.2178,0-5.8237-2.6055-5.8237-5.8232c0-3.2153,2.606-5.8213,5.8237-5.8213
				c0.4702,0,0.9287,0.0562,1.3652,0.1606l0.7324-1.2656c-0.6455-0.189-1.3281-0.293-2.0352-0.293
				C3.2314,23.292,0,26.5259,0,30.5112c0,3.9868,3.2314,7.2217,7.2188,7.2217c3.9878,0,7.2192-3.2349,7.2192-7.2217
				C14.438,28.46,13.5806,26.6079,12.2056,25.293z"/>
		</g>
		<path fill="#3A3836" d="M29.6665,15h-2.0698c1.4268,0,4.0698,1.8721,4.0698,0.4419c0-0.02,0-2.4419,0-2.4419h-3
			c0,0,0-0.146,0-0.1255c0,0.7124-0.3926,1.1255-1.1021,1.1255h0.1021v7.9575l4.543,8.5303l2.0054,0.002l-4.5483-8.5322V15z"/>
		<polygon fill="#3A3836" points="6.5801,32 7.8906,32 14.3398,21 13.2266,21 8.6665,21 8.6665,22 12.2769,22 		"/>
		<polygon fill="#3A3836" points="20.8296,7.75 15.1807,8.8433 12.8979,5.8799 14.0205,0.2456 12.1328,0 10.6289,6.6733 
			14.9063,12.7158 15.0493,20.937 15.6841,38 18.2412,38 18.3394,20.3413 19.3203,20.7173 24.9575,20.6543 24.938,19.3564 
			21.0747,17.4819 20.9648,13.3481 22.4087,15.9526 28.9697,14.4536 28.6841,12.8735 23.5576,13.3853 		"/>
		<polygon fill="#3A3836" points="23.8921,31.312 21.2656,31.2573 21.7959,24.582 25.2578,24.5728 		"/>
		<g>
			<path fill="#3A3836" d="M32.1948,23.292c-0.7969,0-1.563,0.1294-2.2803,0.3687l0.7681,1.2456
				c0.5015-0.1396,1.0293-0.2163,1.5776-0.2163c3.2153,0,5.8208,2.606,5.8208,5.8213c0,3.2178-2.6055,5.8232-5.8208,5.8232
				c-3.2183,0-5.8237-2.6055-5.8237-5.8232c0-1.4551,0.5356-2.7861,1.4175-3.8071l-0.7847-1.2739
				c-1.2949,1.3042-2.0938,3.1001-2.0938,5.0811c0,3.9868,3.2314,7.2217,7.2192,7.2217c3.9873,0,7.2188-3.2349,7.2188-7.2217
				C39.4136,26.5259,36.1821,23.292,32.1948,23.292z"/>
			<path fill="#3A3836" d="M29.627,25.3203l-0.7524-1.2197c-0.333,0.1724-0.6504,0.3711-0.9502,0.5923l0.7563,1.2275
				C28.9751,25.6919,29.292,25.4902,29.627,25.3203z"/>
		</g>
		<polygon fill="#3A3836" points="24.9316,24 14.1313,24 13.3735,25 25.7388,25 		"/>
	</g>
	<g>
		<g>
			<path fill="#3A3836" d="M45.6694,10.9878c0-1.5205,0.1836-2.8623,0.5513-4.0249c0.3672-1.1621,0.8755-2.1445,1.5254-2.9482
				c0.6489-0.8027,1.4141-1.4268,2.2944-1.8711c0.8799-0.4443,1.8413-0.709,2.8838-0.7949v2.5635
				c-0.564,0.0859-1.0938,0.2783-1.5894,0.5771c-0.4956,0.2993-0.9316,0.7305-1.3071,1.2944
				c-0.3765,0.564-0.6714,1.2778-0.8848,2.1406c-0.2139,0.8633-0.3291,1.8843-0.3462,3.0635
				c0.0171,1.1968,0.1323,2.2222,0.3462,3.0767c0.2134,0.855,0.5083,1.5728,0.8848,2.1533
				c0.3755,0.5815,0.8159,1.0254,1.3198,1.3335c0.5044,0.3076,1.0298,0.4956,1.5767,0.564v2.5122
				c-1.0425-0.0684-2.0039-0.3242-2.8838-0.769c-0.8804-0.4443-1.6455-1.0679-2.2944-1.8716
				c-0.6499-0.8032-1.1582-1.79-1.5254-2.9609C45.853,13.8555,45.6694,12.5093,45.6694,10.9878z M56.6675,5.271
				c-0.3936-0.4443-0.812-0.7773-1.2563-1c-0.4443-0.2217-0.9229-0.3501-1.4355-0.3843V1.3486
				c1.9141,0.0859,3.5205,0.7607,4.8198,2.0254L56.6675,5.271z M53.9756,18.1152c0.5127-0.0513,0.9956-0.188,1.4487-0.4102
				c0.4526-0.2222,0.8672-0.5469,1.2432-0.9746l2.1279,1.8716c-0.6499,0.6328-1.376,1.1196-2.1792,1.4614
				c-0.8037,0.3423-1.6836,0.5386-2.6406,0.5898V18.1152z"/>
			<path fill="#3A3836" d="M64.7227,20.5249h-2.1895V7.2988h2.1895V20.5249z"/>
			<path fill="#3A3836" d="M68.0962,7.2988H70.25v13.2261h-2.1538V7.2988z M72.0801,7.2988c1.1128,0,2.0908,0.1768,2.9346,0.5293
				c0.8433,0.353,1.543,0.8228,2.0996,1.4087c0.5562,0.5864,0.9717,1.2534,1.2471,2.001c0.2749,0.748,0.4126,1.5166,0.4126,2.3062
				c0,1.0889-0.1167,2.019-0.3496,2.7905c-0.2334,0.772-0.5298,1.418-0.8887,1.9385c-0.3589,0.52-0.7627,0.9302-1.2114,1.229
				c-0.4482,0.2993-0.8823,0.5234-1.3008,0.6729c-0.4189,0.1499-0.8018,0.2456-1.1484,0.2871
				c-0.3472,0.0425-0.6045,0.063-0.772,0.063h-2.1177v-1.5791h1.3999c1.4595,0,2.5127-0.4668,3.1587-1.3999
				s0.9688-2.2852,0.9688-4.0557c0-0.5503-0.0659-1.0947-0.1973-1.6333c-0.1318-0.5381-0.3857-1.0254-0.7627-1.4624
				c-0.377-0.4365-0.8882-0.7896-1.5342-1.0586c-0.646-0.2695-1.4839-0.4038-2.5127-0.4038h-0.5205V7.2988H72.0801z"/>
			<path fill="#3A3836" d="M92.6821,20.5249H90.457l-3.4277-9.9063l-3.4634,9.9063h-2.2437l4.6304-13.208h2.1353L92.6821,20.5249z
				 M88.2139,16.3257l0.52,1.4536h-3.4272l0.5024-1.4536H88.2139z"/>
			<path fill="#3A3836" d="M95.5352,7.2988h2.1538v13.2261h-2.1538V7.2988z M99.519,7.2988c1.1128,0,2.0908,0.1768,2.9346,0.5293
				c0.8433,0.353,1.543,0.8228,2.0996,1.4087c0.5562,0.5864,0.9717,1.2534,1.2471,2.001c0.2749,0.748,0.4126,1.5166,0.4126,2.3062
				c0,1.0889-0.1167,2.019-0.3496,2.7905c-0.2334,0.772-0.5298,1.418-0.8887,1.9385c-0.3589,0.52-0.7627,0.9302-1.2114,1.229
				c-0.4482,0.2993-0.8823,0.5234-1.3008,0.6729c-0.4189,0.1499-0.8018,0.2456-1.1484,0.2871
				c-0.3472,0.0425-0.6045,0.063-0.772,0.063h-2.1177v-1.5791h1.3999c1.4595,0,2.5127-0.4668,3.1587-1.3999
				s0.9688-2.2852,0.9688-4.0557c0-0.5503-0.0659-1.0947-0.1973-1.6333c-0.1318-0.5381-0.3857-1.0254-0.7627-1.4624
				c-0.377-0.4365-0.8882-0.7896-1.5342-1.0586c-0.646-0.2695-1.4839-0.4038-2.5127-0.4038h-0.5205V7.2988H99.519z"/>
			<path fill="#3A3836" d="M109.3359,7.2988h2.189v13.2261h-2.189V7.2988z M117.6089,7.2988v1.6333h-5.3481V7.2988H117.6089z
				 M117.0522,14.5669h-4.7915v-1.4717h4.7915V14.5669z M112.2607,18.8916h5.3481v1.6333h-5.3481V18.8916z"/>
			<path fill="#3A3836" d="M120.7314,18.1021c0.1675,0.0962,0.3794,0.1885,0.6372,0.2783c0.2568,0.0898,0.5229,0.1738,0.7983,0.2515
				c0.2749,0.0776,0.5503,0.1406,0.8257,0.188c0.2749,0.0483,0.5322,0.0718,0.7715,0.0718h0.0537v1.7051h-0.0356
				c-0.2871,0-0.5835-0.0151-0.8882-0.0449c-0.3052-0.0298-0.6133-0.0806-0.9243-0.1523c-0.3115-0.0718-0.6074-0.1704-0.8887-0.2964
				c-0.2813-0.1255-0.5234-0.2778-0.7266-0.4575L120.7314,18.1021z M120.4443,10.7803c0-0.5264,0.0898-0.9985,0.269-1.4175
				c0.1797-0.4189,0.4219-0.7866,0.7271-1.104c0.3047-0.3164,0.6636-0.5679,1.0767-0.7534
				c0.4126-0.1855,0.8462-0.3081,1.3008-0.3682v1.8843c-0.3828,0.1318-0.6997,0.3623-0.9512,0.6909
				c-0.251,0.3296-0.3765,0.6616-0.3765,0.9961c0,0.4668,0.1255,0.8438,0.3765,1.1309c0.2515,0.2871,0.5684,0.5381,0.9512,0.7534
				v2.0459c-0.3945-0.1914-0.7896-0.3975-1.1841-0.6191c-0.395-0.2212-0.7539-0.4814-1.0771-0.7808
				c-0.3228-0.2988-0.5894-0.646-0.7983-1.0405C120.5488,11.8032,120.4443,11.3306,120.4443,10.7803z M126.6353,9.3447
				c-0.0596-0.0239-0.1313-0.0654-0.2153-0.1255c-0.0835-0.0601-0.2031-0.1167-0.3589-0.1704
				c-0.1553-0.0542-0.353-0.0991-0.5918-0.1348c-0.2397-0.0361-0.5449-0.042-0.9155-0.0181V7.0835
				c0.5264,0.0122,1.0615,0.0688,1.6064,0.1704c0.5439,0.1021,0.9839,0.2603,1.3188,0.4756
				c-0.0718,0.1558-0.1558,0.3262-0.2515,0.5117s-0.1855,0.3589-0.269,0.52c-0.084,0.1616-0.1558,0.2964-0.2153,0.4038
				C126.6831,9.2729,126.6475,9.333,126.6353,9.3447z M124.5537,12.9517c0.395,0.1797,0.7988,0.3711,1.2114,0.5742
				c0.4126,0.2036,0.7866,0.4521,1.1216,0.7451s0.6104,0.6489,0.8257,1.0674c0.2153,0.4189,0.3228,0.9395,0.3228,1.5615
				c0,0.4307-0.0806,0.8496-0.2422,1.2563s-0.3887,0.7744-0.6821,1.1035c-0.293,0.3291-0.6548,0.6074-1.0854,0.8345
				c-0.4307,0.2275-0.9214,0.377-1.4717,0.4487v-1.7231c0.981-0.2388,1.4717-0.8911,1.4717-1.9561
				c0-0.4185-0.1377-0.7651-0.4126-1.0405c-0.2754-0.2754-0.6284-0.5322-1.0591-0.772V12.9517z"/>
			<path fill="#3A3836" d="M138.7793,5.7837c0-0.5293,0.0854-1.0254,0.2568-1.4868c0.1704-0.4614,0.4185-0.8843,0.7432-1.269
				s0.7134-0.7051,1.1665-0.9614c0.4526-0.2563,0.9526-0.436,1.5-0.5386v2.6152c-0.3252,0.1367-0.6025,0.3506-0.8335,0.6406
				c-0.2305,0.291-0.3462,0.6245-0.3462,1c0,0.5986,0.124,1.1196,0.3721,1.564c0.2476,0.4448,0.5166,0.8291,0.8076,1.1538v3.8711
				c-0.855,0.564-1.4741,1.1709-1.8589,1.8198c-0.3848,0.6499-0.5767,1.2822-0.5767,1.8975c0,0.188,0.0381,0.4189,0.1152,0.6919
				c0.0767,0.2739,0.209,0.5347,0.3975,0.7822c0.188,0.248,0.4312,0.4614,0.7305,0.6406c0.2988,0.1797,0.6704,0.2695,1.1152,0.2695
				h0.0771v2.2305h-0.3335c-0.5474,0-1.0894-0.0859-1.6279-0.2568c-0.5386-0.1704-1.0298-0.4438-1.4741-0.8203
				c-0.4448-0.3755-0.8037-0.8589-1.0767-1.4482c-0.2734-0.5898-0.4102-1.2861-0.4102-2.0894c0-0.6836,0.1025-1.3159,0.3076-1.8975
				c0.2051-0.5806,0.478-1.106,0.8203-1.5767c0.3418-0.4697,0.7305-0.897,1.1665-1.2817c0.4355-0.3843,0.8755-0.7134,1.3203-0.9868
				c-0.2051-0.2051-0.4448-0.457-0.7178-0.7563c-0.2739-0.2988-0.5347-0.6367-0.7822-1.0127
				c-0.2476-0.3755-0.4526-0.7988-0.6152-1.269C138.8604,6.8394,138.7793,6.3311,138.7793,5.7837z M152.3926,20.5249h-3.2046
				l-1.769-2.2046c-0.4443,0.5811-0.9912,1.0728-1.6406,1.4741c-0.6499,0.4014-1.4102,0.6709-2.2817,0.8076v-2.2563
				c0.6665-0.188,1.188-0.4741,1.564-0.8589c0.376-0.3843,0.6924-0.7305,0.9487-1.0381c-0.4102-0.4956-0.8296-0.9912-1.2563-1.4868
				c-0.4272-0.4956-0.8462-0.9746-1.2563-1.436V9.1934c0.752-0.3755,1.3159-0.8545,1.6924-1.4355
				c0.3755-0.5811,0.564-1.1621,0.564-1.7432c0-0.6665-0.2183-1.1748-0.6538-1.5254c-0.436-0.3501-0.9702-0.5342-1.6025-0.5513
				V1.4512c0.5981,0,1.1748,0.0898,1.7305,0.269c0.5552,0.1797,1.0513,0.4575,1.4873,0.8335
				c0.4355,0.376,0.7817,0.8457,1.0381,1.4097s0.3843,1.231,0.3843,2c-0.0342,0.6665-0.1538,1.269-0.3589,1.8071
				c-0.2051,0.5386-0.4741,1.0215-0.8071,1.4487c-0.3335,0.4272-0.7012,0.7988-1.1025,1.1152
				c-0.4019,0.3164-0.7993,0.5767-1.1924,0.7817c0.3247,0.4614,0.7437,0.9658,1.2563,1.5127s1,1.0854,1.4614,1.6147
				c0.188-0.29,0.3672-0.5933,0.5381-0.9097s0.3594-0.6963,0.5645-1.1411l1.9995,0.8203c-0.1885,0.5474-0.4189,1.0859-0.6924,1.6152
				c-0.2734,0.5298-0.564,1.0601-0.8716,1.5894L152.3926,20.5249z"/>
			<path fill="#3A3836" d="M163.2109,1.6304h3.0767v18.8945h-3.0767V1.6304z M172.1328,10.5776
				c0.3931,0.0513,0.8115,0.1797,1.2563,0.3848c0.4438,0.2051,0.8584,0.4961,1.2432,0.8716c0.3848,0.376,0.7051,0.833,0.9614,1.3716
				s0.3843,1.1582,0.3843,1.8589c0,0.8545-0.1279,1.5894-0.3843,2.2046s-0.5767,1.124-0.9614,1.5254
				c-0.3848,0.4019-0.8037,0.7178-1.2563,0.9487c-0.4531,0.2305-0.8887,0.4058-1.3071,0.5254
				c-0.4194,0.1196-0.791,0.1924-1.1152,0.2178c-0.3252,0.0259-0.5386,0.0386-0.6411,0.0386h-2.9736V18.269h2.7939
				c0.9058,0,1.6152-0.2905,2.1279-0.8716s0.769-1.3589,0.769-2.333c0-0.9233-0.2651-1.7007-0.7944-2.333
				c-0.5303-0.6323-1.3076-0.9487-2.333-0.9487h-2.5635V9.7061h1.2305c0.3755,0,0.7603-0.0083,1.1533-0.0254
				s0.7607-0.1108,1.1025-0.2822c0.3418-0.1704,0.6191-0.4614,0.833-0.8716s0.3208-1,0.3208-1.769
				c0-0.3076-0.043-0.6279-0.1284-0.9614c-0.0854-0.333-0.2563-0.6362-0.5127-0.9097s-0.624-0.4956-1.1021-0.667
				c-0.479-0.1704-1.1113-0.2563-1.8975-0.2563h-0.9995v-2.333h1.3071c0.8032,0,1.5806,0.0942,2.333,0.2822
				c0.752,0.1885,1.4185,0.4873,1.9995,0.8975s1.0425,0.9443,1.3848,1.6021c0.3413,0.6582,0.5127,1.4399,0.5127,2.3457
				c0,0.5303-0.0859,1.0127-0.2563,1.4487c-0.1714,0.4355-0.3848,0.8164-0.6411,1.1406c-0.2563,0.3252-0.5513,0.5942-0.8843,0.8076
				C172.7607,10.3687,172.4404,10.5098,172.1328,10.5776z"/>
			<path fill="#3A3836" d="M181.8286,20.5249h-2.1895V7.2988h2.1895V20.5249z"/>
			<path fill="#3A3836" d="M185.1484,20.5249V7.2988h2.1895v13.2261H185.1484z M189.5093,14.1001l4.5942,6.4248h-2.4946
				l-3.5352-5.2041v-2.6201l3.2119-5.4019h2.459L189.5093,14.1001z"/>
			<path fill="#3A3836" d="M197.1724,7.2988h2.189v13.2261h-2.189V7.2988z M205.4453,7.2988v1.6333h-5.3481V7.2988H205.4453z
				 M204.8887,14.5669h-4.7915v-1.4717h4.7915V14.5669z M200.0972,18.8916h5.3481v1.6333h-5.3481V18.8916z"/>
			<path fill="#3A3836" d="M208.5679,18.1021c0.1675,0.0962,0.3794,0.1885,0.6372,0.2783c0.2568,0.0898,0.5229,0.1738,0.7983,0.2515
				c0.2749,0.0776,0.5503,0.1406,0.8257,0.188c0.2749,0.0483,0.5322,0.0718,0.7715,0.0718h0.0537v1.7051h-0.0356
				c-0.2871,0-0.5835-0.0151-0.8882-0.0449c-0.3052-0.0298-0.6133-0.0806-0.9243-0.1523c-0.3115-0.0718-0.6074-0.1704-0.8887-0.2964
				c-0.2813-0.1255-0.5234-0.2778-0.7266-0.4575L208.5679,18.1021z M208.2808,10.7803c0-0.5264,0.0898-0.9985,0.269-1.4175
				c0.1797-0.4189,0.4219-0.7866,0.7271-1.104c0.3047-0.3164,0.6636-0.5679,1.0767-0.7534
				c0.4126-0.1855,0.8462-0.3081,1.3008-0.3682v1.8843c-0.3828,0.1318-0.6997,0.3623-0.9512,0.6909
				c-0.251,0.3296-0.3765,0.6616-0.3765,0.9961c0,0.4668,0.1255,0.8438,0.3765,1.1309c0.2515,0.2871,0.5684,0.5381,0.9512,0.7534
				v2.0459c-0.3945-0.1914-0.7896-0.3975-1.1841-0.6191c-0.395-0.2212-0.7539-0.4814-1.0771-0.7808
				c-0.3228-0.2988-0.5894-0.646-0.7983-1.0405C208.3853,11.8032,208.2808,11.3306,208.2808,10.7803z M214.4717,9.3447
				c-0.0596-0.0239-0.1313-0.0654-0.2153-0.1255c-0.0835-0.0601-0.2031-0.1167-0.3589-0.1704
				c-0.1553-0.0542-0.353-0.0991-0.5918-0.1348c-0.2397-0.0361-0.5449-0.042-0.9155-0.0181V7.0835
				c0.5264,0.0122,1.0615,0.0688,1.6064,0.1704c0.5439,0.1021,0.9839,0.2603,1.3188,0.4756
				c-0.0718,0.1558-0.1558,0.3262-0.2515,0.5117s-0.1855,0.3589-0.269,0.52c-0.084,0.1616-0.1558,0.2964-0.2153,0.4038
				C214.5195,9.2729,214.4839,9.333,214.4717,9.3447z M212.3901,12.9517c0.395,0.1797,0.7988,0.3711,1.2114,0.5742
				c0.4126,0.2036,0.7866,0.4521,1.1216,0.7451s0.6104,0.6489,0.8257,1.0674c0.2153,0.4189,0.3228,0.9395,0.3228,1.5615
				c0,0.4307-0.0806,0.8496-0.2422,1.2563s-0.3887,0.7744-0.6821,1.1035c-0.293,0.3291-0.6548,0.6074-1.0854,0.8345
				c-0.4307,0.2275-0.9214,0.377-1.4717,0.4487v-1.7231c0.981-0.2388,1.4717-0.8911,1.4717-1.9561
				c0-0.4185-0.1377-0.7651-0.4126-1.0405c-0.2754-0.2754-0.6284-0.5322-1.0591-0.772V12.9517z"/>
		</g>
	</g>
	<g>
		<g>
			<path fill="#3A3836" d="M46.1797,32.4224c0-0.8271,0.0962-1.5601,0.2886-2.1992c0.1919-0.6396,0.4565-1.1826,0.793-1.6299
				c0.3364-0.4468,0.7402-0.8003,1.2114-1.0596c0.4707-0.2598,0.9805-0.4233,1.5288-0.4902v1.4419
				c-0.2886,0.0771-0.5557,0.2065-0.8008,0.3892c-0.2451,0.1831-0.4614,0.4351-0.6489,0.7573s-0.334,0.7114-0.4395,1.168
				c-0.106,0.4565-0.1636,0.9976-0.1733,1.6226c0.0098,0.625,0.0674,1.1729,0.1733,1.6436c0.1055,0.4712,0.252,0.8774,0.4395,1.2188
				s0.4038,0.6128,0.6489,0.8149c0.2451,0.2017,0.5122,0.3413,0.8008,0.418v1.3125c-0.5483-0.0674-1.0581-0.2334-1.5288-0.4976
				c-0.4712-0.2646-0.875-0.6226-1.2114-1.0747c-0.3364-0.4517-0.6011-0.9971-0.793-1.6367
				C46.2759,33.9819,46.1797,33.249,46.1797,32.4224z M52.3662,29.2065c-0.2305-0.2788-0.4951-0.481-0.793-0.606
				c-0.2983-0.125-0.606-0.1875-0.9229-0.1875h-0.0581v-1.4277h0.0146c0.5767,0,1.1152,0.0962,1.6152,0.2886
				c0.4995,0.1924,0.9468,0.481,1.3408,0.8652L52.3662,29.2065z M54.1113,32.3066v4.1099
				c-0.2217,0.2793-0.4688,0.5073-0.7427,0.6851c-0.2744,0.1782-0.5625,0.3247-0.8652,0.4399
				c-0.3032,0.1152-0.6157,0.1973-0.9375,0.2451c-0.3223,0.0479-0.6416,0.0723-0.959,0.0723h-0.0146v-1.269
				c0.1157,0,0.2573-0.0073,0.4258-0.022c0.168-0.0142,0.3408-0.0381,0.519-0.0718c0.1777-0.0337,0.3462-0.0796,0.5049-0.1372
				c0.1582-0.0576,0.2759-0.1392,0.353-0.2451v-2.6245h-1.8027v-1.1826H54.1113z"/>
			<path fill="#3A3836" d="M56.188,30.3472h1.2109v7.4395H56.188V30.3472z M61.2349,37.7866h-1.2817l-1.4033-2.6953
				c-0.02,0-0.042,0.002-0.0654,0.0054c-0.0239,0.0034-0.0591,0.0049-0.106,0.0049c-0.0474,0-0.1162,0-0.207,0s-0.2104,0-0.3584,0
				v-0.8882h0.6865c0.1479,0,0.2959-0.0254,0.4438-0.0757c0.1479-0.0508,0.2827-0.1328,0.4038-0.2476
				c0.1211-0.1143,0.2188-0.2739,0.293-0.4795c0.0737-0.2051,0.1108-0.4595,0.1108-0.7622c0-0.1211-0.0166-0.2607-0.0503-0.4189
				c-0.0337-0.1577-0.1025-0.3096-0.207-0.4541s-0.2505-0.2656-0.439-0.3633s-0.4375-0.1465-0.7471-0.1465H57.813v-0.9185h0.5146
				c0.3164,0,0.6294,0.0503,0.939,0.1514c0.3096,0.1006,0.5869,0.2524,0.833,0.4541c0.2456,0.2021,0.4438,0.4458,0.5952,0.7319
				s0.2271,0.6074,0.2271,0.9639c0,0.5386-0.1245,0.9961-0.373,1.373c-0.249,0.377-0.5859,0.6563-1.0098,0.8379L61.2349,37.7866z"/>
			<path fill="#3A3836" d="M68.9678,37.7866h-1.252l-1.9277-5.5723l-1.9482,5.5723h-1.2622l2.6045-7.4297h1.2012L68.9678,37.7866z
				 M66.4541,35.4243l0.293,0.8179h-1.9282l0.2827-0.8179H66.4541z"/>
			<path fill="#3A3836" d="M70.5322,37.7866v-7.4395h1.2314v7.4395H70.5322z M74.6812,30.3472h1.2314v7.4395h-1.2314l-2.5034-4.4014
				v-2.3218l2.5034,4.4116V30.3472z"/>
			<path fill="#3A3836" d="M77.8003,30.3472h1.2109v7.4395h-1.2109V30.3472z M80.041,30.3472c0.626,0,1.1763,0.0991,1.6504,0.2979
				c0.4746,0.1982,0.8682,0.4624,1.1812,0.792c0.313,0.3301,0.5469,0.7051,0.7017,1.1255c0.1548,0.4209,0.2319,0.853,0.2319,1.2974
				c0,0.6123-0.0654,1.1357-0.1968,1.5698s-0.2979,0.7974-0.4995,1.0898c-0.2021,0.293-0.4292,0.5234-0.6816,0.6919
				c-0.252,0.168-0.4961,0.2944-0.7314,0.3784c-0.2358,0.084-0.4512,0.1382-0.646,0.1616
				c-0.1953,0.0234-0.3403,0.0352-0.4341,0.0352h-1.1914v-0.8882h0.7876c0.8208,0,1.4131-0.2627,1.7764-0.7876
				s0.5454-1.2852,0.5454-2.2813c0-0.3096-0.0371-0.6157-0.1113-0.9185s-0.2168-0.5771-0.4292-0.8228
				c-0.2119-0.2456-0.4995-0.4443-0.8628-0.5957s-0.8345-0.2271-1.4131-0.2271h-0.293v-0.9185H80.041z"/>
			<path fill="#3A3836" d="M85.563,30.3472h1.2314v7.4395H85.563V30.3472z M90.2163,30.3472v0.9185h-3.0078v-0.9185H90.2163z
				 M89.9038,34.4351h-2.6953v-0.8276h2.6953V34.4351z M87.2085,36.8682h3.0078v0.9185h-3.0078V36.8682z"/>
			<path fill="#3A3836" d="M96.2646,27.1587h1.7593v10.6279h-1.7593V27.1587z M102.9126,27.1587v1.312h-4.2974v-1.312H102.9126z
				 M102.4653,32.999h-3.8501v-1.1826h3.8501V32.999z"/>
			<path fill="#3A3836" d="M105.5874,30.3472v6.521h3.4219v0.9185h-4.6533v-7.4395H105.5874z"/>
			<path fill="#3A3836" d="M110.0894,34.0313c0-0.5986,0.0723-1.1284,0.2168-1.5898c0.145-0.4604,0.3467-0.8511,0.606-1.1709
				c0.2588-0.3193,0.5649-0.5649,0.9185-0.7368c0.3535-0.1714,0.7383-0.271,1.1558-0.2979v1.0098
				c-0.229,0.0269-0.4438,0.0977-0.646,0.2119c-0.2017,0.1143-0.377,0.2827-0.5249,0.5044
				c-0.1479,0.2222-0.2661,0.5049-0.3535,0.8481s-0.1343,0.7505-0.1411,1.2212c0.0068,0.478,0.0537,0.8872,0.1411,1.2266
				c0.0874,0.3398,0.207,0.6245,0.3584,0.853c0.1514,0.229,0.3281,0.4023,0.5303,0.52c0.2017,0.1177,0.4136,0.1865,0.6357,0.207
				v0.999c-0.4106-0.0269-0.7939-0.126-1.1509-0.2979c-0.3564-0.1714-0.6646-0.417-0.9233-0.7368
				c-0.2593-0.3193-0.4609-0.7114-0.606-1.1758C110.1616,35.1621,110.0894,34.6304,110.0894,34.0313z M113.3901,30.2358
				c0.4106,0.0205,0.7925,0.1182,1.146,0.293c0.353,0.1748,0.6592,0.4224,0.9185,0.7417c0.2588,0.3198,0.4624,0.7104,0.6108,1.1709
				c0.1479,0.4614,0.2217,0.9912,0.2217,1.5898c0,0.5991-0.0737,1.1309-0.2217,1.5952c-0.1484,0.4644-0.3521,0.8564-0.6108,1.1758
				c-0.2593,0.3198-0.564,0.5654-0.9136,0.7368c-0.3501,0.1719-0.7339,0.271-1.1509,0.2979v-0.999
				c0.2285-0.0269,0.4443-0.0991,0.646-0.2173c0.2021-0.1177,0.377-0.2891,0.5249-0.5146s0.2661-0.5083,0.3535-0.8481
				c0.0874-0.3394,0.1343-0.7485,0.1411-1.2266c-0.0068-0.4775-0.0537-0.8862-0.1411-1.2261s-0.207-0.6226-0.3584-0.8481
				s-0.3281-0.397-0.5298-0.5146c-0.2021-0.1177-0.4141-0.187-0.6362-0.207V30.2358z"/>
			<path fill="#3A3836" d="M117.9731,30.3472h1.2109v7.4395h-1.2109V30.3472z M123.02,37.7866h-1.2817l-1.4033-2.6953
				c-0.02,0-0.042,0.002-0.0654,0.0054c-0.0239,0.0034-0.0591,0.0049-0.106,0.0049c-0.0474,0-0.1162,0-0.207,0s-0.2104,0-0.3584,0
				v-0.8882h0.6865c0.1479,0,0.2959-0.0254,0.4438-0.0757c0.1479-0.0508,0.2827-0.1328,0.4038-0.2476
				c0.1211-0.1143,0.2188-0.2739,0.293-0.4795c0.0737-0.2051,0.1108-0.4595,0.1108-0.7622c0-0.1211-0.0166-0.2607-0.0503-0.4189
				c-0.0337-0.1577-0.1025-0.3096-0.207-0.4541s-0.2505-0.2656-0.439-0.3633s-0.4375-0.1465-0.7471-0.1465h-0.4946v-0.9185h0.5146
				c0.3164,0,0.6294,0.0503,0.939,0.1514c0.3096,0.1006,0.5869,0.2524,0.833,0.4541c0.2456,0.2021,0.4438,0.4458,0.5952,0.7319
				s0.2271,0.6074,0.2271,0.9639c0,0.5386-0.1245,0.9961-0.373,1.373c-0.249,0.377-0.5859,0.6563-1.0098,0.8379L123.02,37.7866z"/>
			<path fill="#3A3836" d="M125.9072,37.7866h-1.2314v-7.4395h1.2314V37.7866z"/>
			<path fill="#3A3836" d="M133.8618,37.7866h-1.252l-1.9277-5.5723l-1.9482,5.5723h-1.2622l2.6045-7.4297h1.2012L133.8618,37.7866z
				 M131.3481,35.4243l0.293,0.8179h-1.9282l0.2827-0.8179H131.3481z"/>
			<path fill="#3A3836" d="M135.4263,37.7866v-7.4395h1.2314v7.4395H135.4263z M139.5752,30.3472h1.2314v7.4395h-1.2314
				l-2.5034-4.4014v-2.3218l2.5034,4.4116V30.3472z"/>
			<path fill="#3A3836" d="M142.5024,34.0313c0-0.5986,0.0723-1.1284,0.2168-1.5898c0.145-0.4604,0.3467-0.8511,0.606-1.1709
				c0.2588-0.3193,0.5649-0.5649,0.9185-0.7368c0.3535-0.1714,0.7383-0.271,1.1558-0.2979v1.0098
				c-0.229,0.0269-0.4438,0.0977-0.646,0.2119c-0.2017,0.1143-0.377,0.2827-0.5249,0.5044
				c-0.1479,0.2222-0.2661,0.5049-0.3535,0.8481s-0.1343,0.7505-0.1411,1.2212c0.0068,0.478,0.0537,0.8872,0.1411,1.2266
				c0.0874,0.3398,0.207,0.6245,0.3584,0.853c0.1514,0.229,0.3281,0.4023,0.5303,0.52c0.2017,0.1177,0.4136,0.1865,0.6357,0.207
				v0.999c-0.4106-0.0269-0.7939-0.126-1.1509-0.2979c-0.3564-0.1714-0.6646-0.417-0.9233-0.7368
				c-0.2593-0.3193-0.4609-0.7114-0.606-1.1758C142.5747,35.1621,142.5024,34.6304,142.5024,34.0313z M146.5503,28.1968
				l-1.1001,1.4336h-0.8076l0.6763-1.4336H146.5503z M145.8032,30.2358c0.4106,0.0205,0.7925,0.1182,1.146,0.293
				c0.353,0.1748,0.6592,0.4224,0.9185,0.7417c0.2588,0.3198,0.4624,0.7104,0.6108,1.1709
				c0.1479,0.4614,0.2217,0.9912,0.2217,1.5898c0,0.5991-0.0737,1.1309-0.2217,1.5952c-0.1484,0.4644-0.3521,0.8564-0.6108,1.1758
				c-0.2593,0.3198-0.564,0.5654-0.9136,0.7368c-0.3501,0.1719-0.7339,0.271-1.1509,0.2979v-0.999
				c0.2285-0.0269,0.4443-0.0991,0.646-0.2173c0.2021-0.1177,0.377-0.2891,0.5249-0.5146s0.2661-0.5083,0.3535-0.8481
				c0.0874-0.3394,0.1343-0.7485,0.1411-1.2266c-0.0068-0.4775-0.0537-0.8862-0.1411-1.2261s-0.207-0.6226-0.3584-0.8481
				s-0.3281-0.397-0.5298-0.5146c-0.2021-0.1177-0.4141-0.187-0.6362-0.207V30.2358z"/>
			<path fill="#3A3836" d="M150.396,30.3472h1.2114v7.4395h-1.2114V30.3472z M152.5361,30.3472c0.3164,0,0.6294,0.0503,0.939,0.1514
				c0.3091,0.1006,0.5869,0.2524,0.8325,0.4541c0.2456,0.2021,0.4443,0.4458,0.5957,0.7319s0.2271,0.6074,0.2271,0.9639
				c0,0.377-0.064,0.7188-0.1919,1.0249s-0.3062,0.5635-0.5347,0.772c-0.229,0.2085-0.5049,0.3701-0.8281,0.4844
				c-0.3228,0.1147-0.6797,0.1719-1.0698,0.1719h-0.4844v-0.8882h0.6963c0.1479,0,0.2944-0.0254,0.439-0.0757
				c0.145-0.0508,0.2778-0.1328,0.3989-0.2476c0.1211-0.1143,0.2188-0.2739,0.293-0.4795c0.0737-0.2051,0.1108-0.4595,0.1108-0.7622
				c0-0.1211-0.0171-0.2607-0.0503-0.4189c-0.0337-0.1577-0.103-0.3096-0.207-0.4541c-0.1045-0.1445-0.251-0.2656-0.439-0.3633
				c-0.1885-0.0977-0.438-0.1465-0.7471-0.1465h-0.4946v-0.9185H152.5361z"/>
			<path fill="#3A3836" d="M156.3618,34.0313c0-0.5986,0.0723-1.1284,0.2168-1.5898c0.145-0.4604,0.3467-0.8511,0.606-1.1709
				c0.2588-0.3193,0.5649-0.5649,0.9185-0.7368c0.3535-0.1714,0.7383-0.271,1.1558-0.2979v1.0098
				c-0.229,0.0269-0.4438,0.0977-0.646,0.2119c-0.2017,0.1143-0.377,0.2827-0.5249,0.5044
				c-0.1479,0.2222-0.2661,0.5049-0.3535,0.8481s-0.1343,0.7505-0.1411,1.2212c0.0068,0.478,0.0537,0.8872,0.1411,1.2266
				c0.0874,0.3398,0.207,0.6245,0.3584,0.853c0.1514,0.229,0.3281,0.4023,0.5303,0.52c0.2017,0.1177,0.4136,0.1865,0.6357,0.207
				v0.999c-0.4106-0.0269-0.7939-0.126-1.1509-0.2979c-0.3564-0.1714-0.6646-0.417-0.9233-0.7368
				c-0.2593-0.3193-0.4609-0.7114-0.606-1.1758C156.4341,35.1621,156.3618,34.6304,156.3618,34.0313z M159.6626,30.2358
				c0.4106,0.0205,0.7925,0.1182,1.146,0.293c0.353,0.1748,0.6592,0.4224,0.9185,0.7417c0.2588,0.3198,0.4624,0.7104,0.6108,1.1709
				c0.1479,0.4614,0.2217,0.9912,0.2217,1.5898c0,0.5991-0.0737,1.1309-0.2217,1.5952c-0.1484,0.4644-0.3521,0.8564-0.6108,1.1758
				c-0.2593,0.3198-0.564,0.5654-0.9136,0.7368c-0.3501,0.1719-0.7339,0.271-1.1509,0.2979v-0.999
				c0.2285-0.0269,0.4443-0.0991,0.646-0.2173c0.2021-0.1177,0.377-0.2891,0.5249-0.5146s0.2661-0.5083,0.3535-0.8481
				c0.0874-0.3394,0.1343-0.7485,0.1411-1.2266c-0.0068-0.4775-0.0537-0.8862-0.1411-1.2261s-0.207-0.6226-0.3584-0.8481
				s-0.3281-0.397-0.5298-0.5146c-0.2021-0.1177-0.4141-0.187-0.6362-0.207V30.2358z"/>
			<path fill="#3A3836" d="M165.5073,30.3472v6.521h3.4219v0.9185h-4.6533v-7.4395H165.5073z"/>
			<path fill="#3A3836" d="M171.4121,37.7866h-1.2314v-7.4395h1.2314V37.7866z"/>
			<path fill="#3A3836" d="M173.3706,36.4238c0.0942,0.0542,0.2134,0.106,0.3584,0.1567c0.1445,0.0503,0.2939,0.0972,0.4492,0.1411
				c0.1543,0.0439,0.3091,0.0791,0.4644,0.106c0.1543,0.0269,0.2993,0.0405,0.4341,0.0405h0.0303v0.959h-0.0205
				c-0.1616,0-0.3281-0.0088-0.4995-0.0254c-0.1719-0.0166-0.3452-0.0454-0.52-0.0859c-0.1748-0.04-0.3418-0.0957-0.4995-0.1665
				c-0.1582-0.0708-0.2944-0.1563-0.4087-0.2573L173.3706,36.4238z M173.209,32.3052c0-0.2959,0.0503-0.5615,0.1514-0.7974
				c0.1011-0.2354,0.2373-0.4424,0.4087-0.6206c0.1719-0.1782,0.3735-0.3198,0.606-0.4243c0.2319-0.104,0.4761-0.1729,0.7319-0.2065
				v1.0596c-0.2158,0.0742-0.394,0.2036-0.5352,0.3887c-0.1416,0.1851-0.2119,0.3721-0.2119,0.5605
				c0,0.2622,0.0703,0.4741,0.2119,0.6357c0.1411,0.1616,0.3193,0.3027,0.5352,0.4238v1.1509
				c-0.2222-0.1074-0.4443-0.2236-0.6665-0.3481s-0.4238-0.271-0.6055-0.439c-0.1816-0.1685-0.3315-0.3638-0.4492-0.5854
				C173.2676,32.8809,173.209,32.6147,173.209,32.3052z M176.6914,31.4976c-0.0337-0.0132-0.0742-0.0366-0.1211-0.0703
				s-0.1143-0.0659-0.2017-0.0962c-0.0879-0.0303-0.1987-0.0552-0.3335-0.0757c-0.1343-0.02-0.3062-0.0234-0.5146-0.0098v-1.0195
				c0.2959,0.0063,0.5972,0.0386,0.9033,0.0957s0.5537,0.1465,0.7422,0.2676c-0.0405,0.0874-0.0874,0.1831-0.1416,0.2876
				c-0.0537,0.1045-0.104,0.2017-0.1514,0.293c-0.0469,0.0908-0.0874,0.1665-0.1211,0.2271S176.6982,31.4912,176.6914,31.4976z
				 M175.5205,33.5269c0.2222,0.1011,0.4492,0.2085,0.6816,0.3228c0.2319,0.1147,0.4424,0.2544,0.6309,0.4189
				c0.188,0.165,0.3433,0.3652,0.4644,0.6006c0.1211,0.2358,0.1816,0.5283,0.1816,0.8784c0,0.2422-0.0454,0.478-0.1362,0.7065
				c-0.0908,0.229-0.2188,0.436-0.3838,0.6211s-0.3682,0.3413-0.6108,0.4692c-0.2422,0.1279-0.5181,0.2119-0.8276,0.2524v-0.9692
				c0.5518-0.1348,0.8276-0.5015,0.8276-1.1001c0-0.2358-0.0771-0.4307-0.2319-0.5854s-0.3535-0.2998-0.5957-0.4341V33.5269z"/>
		</g>
	</g>
</g>
<g>
</g>
<g>
</g>
<g>
</g>
<g>
</g>
<g>
</g>
<g>
</g>
<g>
</g>
<g>
</g>
<g>
</g>
<g>
</g>
<g>
</g>
<g>
</g>
<g>
</g>
<g>
</g>
<g>
</g>
</svg>
